<svg xmlns="http://www.w3.org/2000/svg" viewBox="0 0 512 512">
  <polygon points="256,26 455.19,141 455.19,371 256,486 56.81,371 56.81,141" fill="#4376FC"/>
  <g transform="translate(164, 164) scale(7.67)" fill="#ffffff">
    <path d="M21 16.5c0 .38-.21.71-.53.88l-7.9 4.44c-.16.12-.36.18-.57.18-.21 0-.41-.06-.57-.18l-7.9-4.44A.991.991 0 0 1 3 16.5v-9c0-.38.21-.71.53-.88l7.9-4.44c.16-.12.36-.18.57-.18.21 0 .41.06.57.18l7.9 4.44c.32.17.53.5.53.88v9M12 4.15 6.04 7.5 12 10.85 17.96 7.5 12 4.15M5 15.91l6 3.38v-6.71L5 9.21v6.7m14 0v-6.7l-6 3.37v6.71l6-3.38Z"/>
  </g>
</svg>
